<svg width="24" height="24" viewBox="0 0 24 24" fill="none" xmlns="http://www.w3.org/2000/svg">
<path fill-rule="evenodd" clip-rule="evenodd" d="M4.2114 15.6149C4.08161 15.7447 3.98954 15.9073 3.94502 16.0853L3.03116 19.7407C2.84573 20.4824 3.51757 21.1543 4.25928 20.9688L7.91475 20.055C8.09282 20.0105 8.25545 19.9184 8.38525 19.7886L20.2585 7.91528C21.2472 6.92654 21.2472 5.32351 20.2584 4.33479L19.6652 3.74155C18.6764 2.75281 17.0733 2.75282 16.0846 3.74157L4.2114 15.6149ZM7.41024 18.6153L4.7096 19.2904L5.38476 16.5898L14.3306 7.64403L16.3561 9.66948L7.41024 18.6153ZM17.4302 8.59531L19.1843 6.84114C19.5798 6.44565 19.5798 5.80443 19.1843 5.40894L18.591 4.8157C18.1955 4.42021 17.5543 4.42021 17.1588 4.81571L15.4048 6.56987L17.4302 8.59531Z" fill="black"/>
</svg>
