<svg width="24" height="25" viewBox="0 0 24 25" fill="none" xmlns="http://www.w3.org/2000/svg">
<path d="M20.8451 13.4379C20.8451 12.8094 20.7945 12.1809 20.6934 11.5652H12.1074V15.1182H17.0263C16.824 16.2598 16.1665 17.2859 15.2054 17.9273V20.2361H18.1391C19.8588 18.6327 20.8451 16.2598 20.8451 13.4379Z" fill="#1899E9"/>
<path d="M12.1073 22.4679C14.5604 22.4679 16.6342 21.6469 18.139 20.236L15.2053 17.9272C14.3834 18.4916 13.3339 18.8122 12.1073 18.8122C9.73004 18.8122 7.71948 17.1832 6.99872 15.0027H3.97656V17.3885C5.51925 20.5054 8.66786 22.4679 12.1073 22.4679Z" fill="#009B3A"/>
<path d="M6.99898 15.0027C6.61963 13.8612 6.61963 12.617 6.99898 11.4626V9.0896H3.97683C2.67439 11.6934 2.67439 14.7719 3.97683 17.3757L6.99898 15.0027Z" fill="#FFA700"/>
<path d="M12.1073 7.65301C13.4097 7.62736 14.6616 8.1276 15.5973 9.0383L18.2022 6.39599C16.5457 4.83112 14.3708 3.97173 12.1073 3.99738C8.66786 3.99738 5.51925 5.97271 3.97656 9.08961L6.99872 11.4754C7.71948 9.28201 9.73004 7.65301 12.1073 7.65301Z" fill="#DE3531"/>
</svg>
