<svg width="16" height="16" viewBox="0 0 16 16" fill="none" xmlns="http://www.w3.org/2000/svg">
<path fill-rule="evenodd" clip-rule="evenodd" d="M10.6667 13.3248H12.66L12.6667 7.74084L7.99867 2.94617L3.33733 7.71351L3.33333 13.3248H5.33333V8.65817C5.33333 8.28951 5.63133 7.99151 6 7.99151H10C10.368 7.99151 10.6667 8.28951 10.6667 8.65817V13.3248ZM9.33333 13.3248H6.66667V9.32484H9.33333V13.3248ZM13.616 6.78151L8.47667 1.52551C8.22533 1.26884 7.77467 1.26884 7.52333 1.52551L2.38333 6.78217C2.14 7.03217 2 7.38151 2 7.74084V13.3248C2 14.0602 2.56467 14.6582 3.25867 14.6582H6H10H12.7407C13.4347 14.6582 14 14.0602 14 13.3248V7.74084C14 7.38151 13.86 7.03217 13.616 6.78151V6.78151Z" fill="#181818"/>
</svg>
