<svg width="201" height="42" viewBox="0 0 201 42" fill="none" xmlns="http://www.w3.org/2000/svg">
<path d="M6.82 16.6404H0.66C1.012 10.7884 5.72 8.94043 11 8.94043C16.5 8.94043 20.9 10.9204 20.9 16.8604V32.4804H14.74V28.0804H14.52C14.52 28.0804 13.112 33.1404 7.26 33.1404C3.08 33.1404 0 31.2044 0 26.9804C0 22.7124 3.52 20.7764 7.304 19.8084C11.132 18.8404 14.74 18.5324 14.74 15.9804C14.74 14.1764 13.42 13.1204 11 13.1204C8.36 13.1204 6.908 14.1764 6.82 16.6404ZM14.74 20.9524C13.728 21.8764 11.66 22.3604 9.9 22.8004C7.92 23.2844 6.248 24.2964 6.248 26.3204C6.248 28.0804 7.48 29.1804 9.46 29.1804C13.64 29.1804 14.74 24.3404 14.74 20.9524Z" fill="#181818"/>
<path d="M23.0845 32.4804V9.60043H29.0245V13.3404H29.2445C29.2445 13.3404 31.2245 8.94043 36.2845 8.94043C42.6645 8.94043 44.4245 13.1204 44.4245 18.4004V32.4804H38.2645V19.7204C38.2645 15.7604 37.1645 14.0004 34.3045 14.0004C31.0045 14.0004 29.2445 15.9804 29.2445 20.6004V32.4804H23.0845Z" fill="#181818"/>
<path d="M52.5714 21.0404C52.5714 25.1764 54.1554 28.5204 58.0714 28.5204C61.9874 28.5204 63.5714 25.1764 63.5714 21.0404C63.5714 16.9044 61.9874 13.5604 58.0714 13.5604C54.1554 13.5604 52.5714 16.9044 52.5714 21.0404ZM46.4114 21.0404C46.4114 14.3524 50.5474 8.94043 58.0714 8.94043C65.5954 8.94043 69.7314 14.3524 69.7314 21.0404C69.7314 27.7284 65.5954 33.1404 58.0714 33.1404C50.5474 33.1404 46.4114 27.7284 46.4114 21.0404Z" fill="#181818"/>
<path d="M71.7252 32.4804V9.60043H77.6652V13.3404H77.8852C77.8852 13.3404 79.8652 8.94043 84.9252 8.94043C91.3052 8.94043 93.0652 13.1204 93.0652 18.4004V32.4804H86.9052V19.7204C86.9052 15.7604 85.8052 14.0004 82.9452 14.0004C79.6451 14.0004 77.8852 15.9804 77.8852 20.6004V32.4804H71.7252Z" fill="#181818"/>
<path d="M117.287 9.60043L109.147 33.1404C107.343 38.3764 104.967 41.0604 100.347 41.0604C98.1475 41.0604 96.3875 40.4004 96.3875 40.4004V35.3404C96.3875 35.3404 97.7075 35.7804 99.2475 35.7804C101.447 35.7804 102.327 34.5924 103.207 32.4804L93.9675 9.60043H100.567L106.155 24.6924L110.688 9.60043H117.287Z" fill="#181818"/>
<path d="M132.239 32.4804V19.7204C132.239 15.7604 131.447 14.0004 129.027 14.0004C126.387 14.0004 124.979 15.9804 124.979 20.6004V32.4804H118.819V9.60043H124.759V13.3404H124.979C124.979 13.3404 126.519 8.94043 131.139 8.94043C134.835 8.94043 136.815 10.7004 137.695 13.3844L137.739 13.3404H137.959C137.959 13.3404 139.939 8.94043 144.559 8.94043C150.279 8.94043 151.819 13.1204 151.819 18.4004V32.4804H145.659V19.7204C145.659 15.7604 144.867 14.0004 142.447 14.0004C139.807 14.0004 138.399 15.9804 138.399 20.6004V32.4804H132.239Z" fill="#181818"/>
<path d="M154.01 32.4804V9.60043H159.95V13.3404H160.17C160.17 13.3404 162.15 8.94043 167.21 8.94043C173.59 8.94043 175.35 13.1204 175.35 18.4004V32.4804H169.19V19.7204C169.19 15.7604 168.09 14.0004 165.23 14.0004C161.93 14.0004 160.17 15.9804 160.17 20.6004V32.4804H154.01Z" fill="#181818"/>
<path d="M183.497 21.0404C183.497 25.1764 185.081 28.5204 188.997 28.5204C192.913 28.5204 194.497 25.1764 194.497 21.0404C194.497 16.9044 192.913 13.5604 188.997 13.5604C185.081 13.5604 183.497 16.9044 183.497 21.0404ZM177.337 21.0404C177.337 14.3524 181.473 8.94043 188.997 8.94043C196.521 8.94043 200.657 14.3524 200.657 21.0404C200.657 27.7284 196.521 33.1404 188.997 33.1404C181.473 33.1404 177.337 27.7284 177.337 21.0404Z" fill="#181818"/>
</svg>
