<svg width="24" height="24" viewBox="0 0 24 24" fill="none" xmlns="http://www.w3.org/2000/svg">
<path d="M19 3V20.5C19 20.7761 18.7761 21 18.5 21H18C17.7239 21 17.5 20.7761 17.5 20.5V14H15.5C15.2239 14 15 13.7761 15 13.5V7C15 3 19 3 19 3Z" fill="#484848"/>
<path d="M5 9.5C5 10.8807 6.11929 12 7.5 12L7.5 20.5C7.5 20.7761 7.72386 21 8 21H8.5C8.77614 21 9 20.7761 9 20.5V12C10.3807 12 11.5 10.8807 11.5 9.5V3.5C11.5 3.22386 11.2761 3 11 3H10.5C10.2239 3 10 3.22386 10 3.5V8.5C10 8.77614 9.77614 9 9.5 9C9.22386 9 9 8.77614 9 8.5V3.5C9 3.22386 8.77614 3 8.5 3H8C7.72386 3 7.5 3.22386 7.5 3.5V8.5C7.5 8.77614 7.27614 9 7 9C6.72386 9 6.5 8.77614 6.5 8.5V3.5C6.5 3.22386 6.27614 3 6 3H5.5C5.22386 3 5 3.22386 5 3.5V9.5Z" fill="#484848"/>
</svg>
