<svg width="24" height="24" viewBox="0 0 24 24" fill="none" xmlns="http://www.w3.org/2000/svg">
<path fill-rule="evenodd" clip-rule="evenodd" d="M8 7.88579C5.72983 8.24737 4 10.1218 4 12.3797V20.481C4 20.7607 4.23878 20.9873 4.53333 20.9873H5.6C5.89455 20.9873 6.13333 20.7607 6.13333 20.481V19.9747H11.4667V20.481C11.4667 20.7607 11.7054 20.9873 12 20.9873H13.0667C13.3612 20.9873 13.6 20.7607 13.6 20.481V12.3797C13.6 10.1218 11.8702 8.24737 9.6 7.88579V6.81013C9.6 5.31686 11.2024 3.51899 13.0667 3.51899C14.9309 3.51899 16.5333 5.31686 16.5333 6.81013V19.9747H15.2C14.9054 19.9747 14.6667 20.2014 14.6667 20.481V21.4937C14.6667 21.7733 14.9054 22 15.2 22H19.4667C19.7612 22 20 21.7733 20 21.4937V20.481C20 20.2014 19.7612 19.9747 19.4667 19.9747H18.1333V6.81013C18.1333 4.52894 15.8793 2 13.0667 2C10.254 2 8 4.52894 8 6.81013V7.88579ZM8 9.74216V11.6203C8 12.0397 8.35817 12.3797 8.8 12.3797C9.24183 12.3797 9.6 12.0397 9.6 11.6203V9.74216C10.3818 10.0426 10.9333 10.7703 10.9333 11.6203C10.9333 12.7388 9.97821 13.6456 8.8 13.6456C7.62179 13.6456 6.66667 12.7388 6.66667 11.6203C6.66667 10.7703 7.21818 10.0426 8 9.74216Z" fill="#484848"/>
</svg>
