<svg width="24" height="24" viewBox="0 0 24 24" fill="none" xmlns="http://www.w3.org/2000/svg">
<path fill-rule="evenodd" clip-rule="evenodd" d="M19.5796 9.69715C19.4101 9.89912 19.1128 9.93471 18.9004 9.77848L18.1265 9.20933V20.5007C18.1265 20.7768 17.9027 21.0007 17.6265 21.0007H6.3701C6.09395 21.0007 5.8701 20.7768 5.8701 20.5007V9.21104L5.09855 9.77848C4.88612 9.93471 4.58888 9.89912 4.41935 9.69715L4.11706 9.33702C3.93141 9.11586 3.97117 8.78385 4.20379 8.61277L11.7032 3.09721C11.8795 2.9676 12.1195 2.9676 12.2957 3.09721L19.7952 8.61277C20.0278 8.78385 20.0675 9.11586 19.8819 9.33702L19.5796 9.69715ZM8.42405 10.9837C8.42405 10.7075 8.64791 10.4837 8.92405 10.4837H9.96611C10.2423 10.4837 10.4661 10.7075 10.4661 10.9837V13.3298C10.4661 13.606 10.2423 13.8298 9.96611 13.8298H8.92405C8.64791 13.8298 8.42405 13.606 8.42405 13.3298V10.9837ZM14.0309 10.4837C13.7547 10.4837 13.5309 10.7075 13.5309 10.9837V13.3298C13.5309 13.606 13.7547 13.8298 14.0309 13.8298H15.0729C15.3491 13.8298 15.5729 13.606 15.5729 13.3298V10.9837C15.5729 10.7075 15.3491 10.4837 15.0729 10.4837H14.0309ZM10.4669 17.198C10.4669 16.9218 10.6908 16.698 10.9669 16.698H13.031C13.3071 16.698 13.531 16.9218 13.531 17.198V21.0002H10.4669V17.198Z" fill="#484848"/>
</svg>
