<svg width="24" height="25" viewBox="0 0 24 25" fill="none" xmlns="http://www.w3.org/2000/svg">
<path fill-rule="evenodd" clip-rule="evenodd" d="M4 4.99683H20C21.1046 4.99683 22 5.89226 22 6.99683V18.9968C22 20.1014 21.1046 20.9968 20 20.9968H4C2.89543 20.9968 2 20.1014 2 18.9968L2 6.99683C2 5.89226 2.89543 4.99683 4 4.99683ZM4.56066 6.49683L11.1161 13.0523C11.6043 13.5404 12.3957 13.5404 12.8839 13.0523L19.4393 6.49683H4.56066ZM20.5 7.55749L13.9445 14.1129C12.8706 15.1869 11.1294 15.1869 10.0555 14.1129L3.5 7.55749V18.4362L6.90906 14.9746C7.20127 14.6779 7.67925 14.6761 7.97372 14.9705C8.26503 15.2619 8.26683 15.7336 7.97776 16.0271L4.56066 19.4968H19.4393L16.0222 16.0271C15.7332 15.7336 15.735 15.2619 16.0263 14.9705C16.3207 14.6761 16.7987 14.6779 17.0909 14.9746L20.5 18.4362V7.55749Z" fill="black"/>
</svg>
