<svg width="24" height="24" viewBox="0 0 24 24" fill="none" xmlns="http://www.w3.org/2000/svg">
<path fill-rule="evenodd" clip-rule="evenodd" d="M13.0813 14.4674C13.6253 14.3474 14.1501 14.1394 14.6333 13.8466C14.7196 13.7959 14.7947 13.7282 14.8541 13.6476C14.9135 13.5671 14.956 13.4753 14.9789 13.3779C15.0019 13.2805 15.0048 13.1794 14.9877 13.0808C14.9705 12.9822 14.9335 12.8881 14.8789 12.8042C14.7641 12.6332 14.5878 12.513 14.3866 12.4688C14.1854 12.4245 13.9749 12.4595 13.7989 12.5666C13.2553 12.8928 12.6333 13.0651 11.9993 13.0651C11.3654 13.0651 10.7433 12.8928 10.1997 12.5666C10.0238 12.4593 9.81324 12.4242 9.612 12.4685C9.41077 12.5127 9.2344 12.633 9.11973 12.8042C9.06517 12.8881 9.02819 12.9822 9.011 13.0808C8.99382 13.1794 8.99679 13.2805 9.01974 13.3779C9.0427 13.4753 9.08515 13.5671 9.14455 13.6476C9.20395 13.7282 9.27905 13.7959 9.36533 13.8466C9.84853 14.1394 10.3733 14.3474 10.9173 14.4674L9.42293 15.9098C9.35038 15.9787 9.29262 16.0617 9.25314 16.1536C9.21367 16.2455 9.19331 16.3445 9.19331 16.4446C9.19331 16.5447 9.21367 16.6437 9.25314 16.7356C9.29262 16.8275 9.35038 16.9105 9.42293 16.9794C9.57211 17.1221 9.77089 17.2013 9.97733 17.2002C10.1773 17.2002 10.3781 17.1266 10.5317 16.9794L11.9997 15.5618L13.4685 16.9794C13.6178 17.1216 13.816 17.201 14.0221 17.201C14.2283 17.201 14.4265 17.1216 14.5757 16.9794C14.6484 16.9106 14.7062 16.8276 14.7458 16.7357C14.7853 16.6437 14.8057 16.5447 14.8057 16.4446C14.8057 16.3445 14.7853 16.2455 14.7458 16.1535C14.7062 16.0616 14.6484 15.9786 14.5757 15.9098L13.0813 14.4674ZM14.6661 9.781C14.6661 11.2034 13.4677 12.361 11.9933 12.361C10.5189 12.361 9.31973 11.2034 9.31973 9.781C9.31973 8.357 10.5197 7.2002 11.9933 7.2002C13.4669 7.2002 14.6661 8.3578 14.6661 9.781V9.781ZM13.0981 9.781C13.0981 9.1914 12.6021 8.713 11.9909 8.713C11.3813 8.713 10.8845 9.1914 10.8845 9.781C10.8845 10.3698 11.3805 10.849 11.9909 10.849C12.6013 10.849 13.0981 10.369 13.0981 9.781V9.781Z" fill="#838383"/>
</svg>
