<svg width="24" height="24" viewBox="0 0 24 24" fill="none" xmlns="http://www.w3.org/2000/svg">
<path fill-rule="evenodd" clip-rule="evenodd" d="M13.7961 2.14643C13.9913 1.95119 14.3079 1.95119 14.5031 2.14643L16.9656 4.60871C16.2784 5.38054 16.3051 6.5635 17.0446 7.30329C17.7844 8.0433 18.9679 8.07039 19.7401 7.38297L21.8547 9.49745C22.05 9.69272 22.05 10.0093 21.8547 10.2046L10.2051 21.8533C10.0099 22.0485 9.69332 22.0485 9.49806 21.8533L7.20994 19.5653C7.65117 19.0731 7.8169 18.3891 7.64476 17.7458C7.46324 17.0676 6.93365 16.5377 6.25549 16.3558C5.61191 16.1832 4.92731 16.3488 4.43468 16.7903L2.14646 14.5022C1.95118 14.307 1.95118 13.9904 2.14646 13.7951L13.7961 2.14643ZM10.2933 11.8536L8.63673 13.5057L11.1896 13.3549L12.5433 15.6077L12.8461 12.9049L15.5473 12.6045L13.2912 11.2528L13.4457 8.69954L11.7892 10.3517L9.39084 9.45112L10.2933 11.8536Z" fill="#484848"/>
</svg>
