<svg width="24" height="24" viewBox="0 0 24 24" fill="none" xmlns="http://www.w3.org/2000/svg">
<path fill-rule="evenodd" clip-rule="evenodd" d="M5 3C3.89543 3 3 3.89543 3 5V9C3 10.1046 3.89543 11 5 11H9C10.1046 11 11 10.1046 11 9V5C11 3.89543 10.1046 3 9 3H5ZM9 4.5H5C4.72386 4.5 4.5 4.72386 4.5 5V9C4.5 9.27614 4.72386 9.5 5 9.5H9C9.27614 9.5 9.5 9.27614 9.5 9V5C9.5 4.72386 9.27614 4.5 9 4.5Z" fill="black"/>
<path fill-rule="evenodd" clip-rule="evenodd" d="M5 13C3.89543 13 3 13.8954 3 15V19C3 20.1046 3.89543 21 5 21H9C10.1046 21 11 20.1046 11 19V15C11 13.8954 10.1046 13 9 13H5ZM9 14.5H5C4.72386 14.5 4.5 14.7239 4.5 15V19C4.5 19.2761 4.72386 19.5 5 19.5H9C9.27614 19.5 9.5 19.2761 9.5 19V15C9.5 14.7239 9.27614 14.5 9 14.5Z" fill="black"/>
<path fill-rule="evenodd" clip-rule="evenodd" d="M15 3C13.8954 3 13 3.89543 13 5V9C13 10.1046 13.8954 11 15 11H19C20.1046 11 21 10.1046 21 9V5C21 3.89543 20.1046 3 19 3H15ZM19 4.5H15C14.7239 4.5 14.5 4.72386 14.5 5V9C14.5 9.27614 14.7239 9.5 15 9.5H19C19.2761 9.5 19.5 9.27614 19.5 9V5C19.5 4.72386 19.2761 4.5 19 4.5Z" fill="black"/>
<path d="M17 13.1C17.497 13.1 17.9 13.5029 17.9 14V16.1H20C20.497 16.1 20.9 16.5029 20.9 17C20.9 17.4971 20.497 17.9 20 17.9H17.9V20C17.9 20.4971 17.497 20.9 17 20.9C16.5029 20.9 16.1 20.4971 16.1 20V17.9H14C13.5029 17.9 13.1 17.4971 13.1 17C13.1 16.5029 13.5029 16.1 14 16.1H16.1V14C16.1 13.5029 16.5029 13.1 17 13.1Z" fill="black"/>
</svg>
