<svg width="24" height="25" viewBox="0 0 24 25" fill="none" xmlns="http://www.w3.org/2000/svg">
<path d="M10.0002 9.99686C10.0002 10.6872 9.44055 11.2469 8.75019 11.2469C8.05983 11.2469 7.50019 10.6872 7.50019 9.99686C7.50019 9.3065 8.05983 8.74686 8.75019 8.74686C9.44055 8.74686 10.0002 9.3065 10.0002 9.99686Z" fill="black"/>
<path d="M16.5002 9.99686C16.5002 10.6872 15.9405 11.2469 15.2502 11.2469C14.5598 11.2469 14.0002 10.6872 14.0002 9.99686C14.0002 9.3065 14.5598 8.74686 15.2502 8.74686C15.9405 8.74686 16.5002 9.3065 16.5002 9.99686Z" fill="black"/>
<path d="M7.11593 14.3096C7.49549 14.1438 7.93763 14.317 8.10347 14.6966C8.75998 16.1992 10.2586 17.2469 12.0002 17.2469C13.7418 17.2469 15.2403 16.1992 15.8969 14.6966C16.0627 14.317 16.5048 14.1438 16.8844 14.3096C17.264 14.4754 17.4372 14.9176 17.2714 15.2971C16.3848 17.3264 14.3592 18.7469 12.0002 18.7469C9.64113 18.7469 7.61555 17.3264 6.72894 15.2971C6.5631 14.9176 6.73636 14.4754 7.11593 14.3096Z" fill="black"/>
<path fill-rule="evenodd" clip-rule="evenodd" d="M12 22.9969C6.47715 22.9969 2 18.5197 2 12.9969C2 7.47401 6.47715 2.99686 12 2.99686C17.5228 2.99686 22 7.47401 22 12.9969C22 18.5197 17.5228 22.9969 12 22.9969ZM11.9996 21.4969C16.6941 21.4969 20.4996 17.6913 20.4996 12.9969C20.4996 8.30244 16.6941 4.49686 11.9996 4.49686C7.30521 4.49686 3.49963 8.30244 3.49963 12.9969C3.49963 17.6913 7.30521 21.4969 11.9996 21.4969Z" fill="black"/>
</svg>
