<svg width="32" height="32" viewBox="0 0 32 32" fill="none" xmlns="http://www.w3.org/2000/svg">
<path fill-rule="evenodd" clip-rule="evenodd" d="M17.2312 3.68663C16.7757 2.59157 15.2245 2.59157 14.769 3.68663L12.0808 10.1499C11.8888 10.6115 11.4547 10.9269 10.9563 10.9669L3.97867 11.5263C2.79647 11.621 2.3171 13.0964 3.21781 13.8679L8.534 18.4218C8.91372 18.7471 9.07955 19.2575 8.96354 19.7438L7.33936 26.5528C7.06417 27.7064 8.31917 28.6182 9.33131 28L15.3051 24.3512C15.7318 24.0906 16.2684 24.0906 16.6951 24.3512L22.6689 28C23.681 28.6182 24.936 27.7064 24.6609 26.5528L23.0367 19.7438C22.9207 19.2575 23.0865 18.7471 23.4662 18.4218L28.7824 13.868C29.6831 13.0964 29.2038 11.621 28.0215 11.5263L21.044 10.9669C20.5456 10.9269 20.1114 10.6115 19.9194 10.1499L17.2312 3.68663Z" fill="#FFCC00"/>
</svg>
