<svg width="24" height="24" viewBox="0 0 24 24" fill="none" xmlns="http://www.w3.org/2000/svg">
<path fill-rule="evenodd" clip-rule="evenodd" d="M12.9234 2.76497C12.5818 1.94368 11.4184 1.94368 11.0768 2.76497L9.06061 7.61239C8.9166 7.95862 8.59099 8.19519 8.2172 8.22516L2.984 8.6447C2.09735 8.71579 1.73782 9.82229 2.41336 10.401L6.4005 13.8164C6.68529 14.0603 6.80966 14.4431 6.72266 14.8079L5.50452 19.9146C5.29813 20.7798 6.23938 21.4637 6.99848 21L11.4788 18.2634C11.7988 18.068 12.2013 18.068 12.5213 18.2634L17.0017 21C17.7608 21.4637 18.702 20.7798 18.4956 19.9146L17.2775 14.8079C17.1905 14.4431 17.3149 14.0603 17.5997 13.8164L21.5868 10.401C22.2623 9.82229 21.9028 8.71579 21.0162 8.6447L15.783 8.22516C15.4092 8.19519 15.0836 7.95862 14.9396 7.61239L12.9234 2.76497ZM13.647 8.50466L12.0001 4.54504L9.88411 9.63258L4.39168 10.0729L7.64858 12.8628C8.21816 13.3507 8.46691 14.1162 8.29289 14.8458L7.29785 19.0172L10.9576 16.7818C11.5977 16.3909 12.4026 16.3909 13.0426 16.7818L16.7024 19.0172L15.7074 14.8458C15.5334 14.1162 15.7821 13.3507 16.3517 12.8628L19.6086 10.0729L15.3338 9.7302C14.5863 9.67027 13.935 9.19713 13.647 8.50466Z" fill="black"/>
</svg>
