<svg width="24" height="24" viewBox="0 0 24 24" fill="none" xmlns="http://www.w3.org/2000/svg">
<path fill-rule="evenodd" clip-rule="evenodd" d="M6.49917 8.50051C6.49917 5.46266 8.9616 3 11.9992 3C15.0367 3 17.4992 5.46266 17.4992 8.50051C17.4992 11.5384 15.0367 14.001 11.9992 14.001C8.9616 14.001 6.49917 11.5384 6.49917 8.50051ZM15.9992 8.50051C15.9992 6.29117 14.2083 4.50014 11.9992 4.50014C9.79003 4.50014 7.99917 6.29117 7.99917 8.50051C7.99917 10.7099 9.79003 12.5009 11.9992 12.5009C14.2083 12.5009 15.9992 10.7099 15.9992 8.50051Z" fill="black"/>
<path d="M20.9996 19.2211C20.9996 16.9581 19.2071 15.111 16.9555 15.0043L16.7423 14.9994L7.24274 15.0193C4.96941 15.0231 3.11546 16.7994 3.00519 19.0305L3 19.2409V20.255C3 20.6665 3.33579 21 3.75 21C4.1297 21 4.44349 20.7197 4.49315 20.3561L4.5 20.255V19.2409C4.5 17.7899 5.63905 16.6028 7.07799 16.5145L7.2453 16.5093L16.7449 16.4894C18.2119 16.4894 19.408 17.6235 19.4946 19.0547L19.4996 19.2211V20.255C19.4996 20.6665 19.8354 21 20.2496 21C20.6293 21 20.9431 20.7197 20.9927 20.3561L20.9996 20.255V19.2211Z" fill="black"/>
</svg>
