<svg width="24" height="24" viewBox="0 0 24 24" fill="none" xmlns="http://www.w3.org/2000/svg">
<path fill-rule="evenodd" clip-rule="evenodd" d="M12.2001 14.9746C12.2001 14.9746 12.3844 14.954 12.4781 14.8492C12.565 14.754 12.5612 14.5731 12.5612 14.5731C12.5612 14.5731 12.5506 13.7302 12.9299 13.6056C13.3039 13.4834 13.7845 14.4207 14.2945 14.7818C14.6798 15.054 14.9722 14.9945 14.9722 14.9945L16.3345 14.9746C16.3345 14.9746 17.047 14.9294 16.7092 14.3524C16.6813 14.3048 16.512 13.9238 15.6968 13.1437C14.8415 12.3262 14.9563 12.4587 15.9854 11.0444C16.6118 10.1833 16.8619 9.65789 16.784 9.43328C16.7092 9.2182 16.2483 9.27455 16.2483 9.27455L14.7146 9.28486C14.7146 9.28486 14.6012 9.26899 14.5166 9.32058C14.4342 9.37137 14.3806 9.49042 14.3806 9.49042C14.3806 9.49042 14.1388 10.1571 13.8147 10.7238C13.1317 11.919 12.8589 11.9825 12.7471 11.9079C12.4872 11.7349 12.5521 11.2127 12.5521 10.842C12.5521 9.68328 12.7229 9.19915 12.2205 9.07454C12.0542 9.03327 11.9311 9.00629 11.5049 9.00152C10.9572 8.99518 10.494 9.00311 10.2318 9.13565C10.058 9.22296 9.92204 9.41979 10.0052 9.43169C10.1064 9.44518 10.3361 9.49518 10.4577 9.66582C10.6149 9.88646 10.6088 10.3817 10.6088 10.3817C10.6088 10.3817 10.6995 11.7452 10.398 11.9151C10.1918 12.0309 9.90844 11.7936 9.29946 10.7087C9.09287 10.3319 8.90989 9.94141 8.75168 9.53963C8.75168 9.53963 8.70635 9.42455 8.62475 9.36264C8.52653 9.28804 8.38977 9.26502 8.38977 9.26502L6.9323 9.27455C6.9323 9.27455 6.71318 9.28089 6.6331 9.37931C6.56207 9.46661 6.62781 9.64677 6.62781 9.64677C6.62781 9.64677 7.7687 12.3992 9.06071 13.7865C10.2454 15.058 11.5903 14.9746 11.5903 14.9746H12.2001Z" fill="#838383"/>
</svg>
