<svg width="24" height="25" viewBox="0 0 24 25" fill="none" xmlns="http://www.w3.org/2000/svg">
<g clip-path="url(#clip0_31_744)">
<path d="M12 24.9724C18.6139 24.9724 23.9755 19.6107 23.9755 12.9968C23.9755 6.38288 18.6139 1.02124 12 1.02124C5.38605 1.02124 0.0244141 6.38288 0.0244141 12.9968C0.0244141 19.6107 5.38605 24.9724 12 24.9724Z" fill="#FC3F1D"/>
<path d="M16.3334 20.5146H13.7046V7.51236H12.5334C10.3868 7.51236 9.26233 8.5857 9.26233 10.1879C9.26233 12.0057 10.0379 12.8479 11.6423 13.9213L12.9646 14.8124L9.16456 20.5124H6.33789L9.75789 15.4235C7.79122 14.019 6.68456 12.6479 6.68456 10.3346C6.68456 7.44347 8.70011 5.47681 12.5157 5.47681H16.3157V20.5101H16.3334V20.5146Z" fill="white"/>
</g>
<defs>
<clipPath id="clip0_31_744">
<rect width="24" height="24" fill="white" transform="translate(0 0.996826)"/>
</clipPath>
</defs>
</svg>
