<?xml version="1.0" encoding="utf-8"?><svg xmlns="http://www.w3.org/2000/svg" xmlns:xlink="http://www.w3.org/1999/xlink"><symbol viewBox="0 0 24 24" id="arrow-left" xmlns="http://www.w3.org/2000/svg"><path fill-rule="evenodd" clip-rule="evenodd" d="M19 11H7.135l3.633-4.36a1 1 0 1 0-1.536-1.28l-5 6c-.039.047-.059.102-.088.154-.024.042-.053.078-.071.124a.985.985 0 0 0-.072.358L4 12l.001.004c0 .122.027.243.072.358.018.046.047.082.071.124.029.052.049.107.088.154l5 6a.999.999 0 1 0 1.536-1.28L7.135 13H19a1 1 0 0 0 0-2Z"/></symbol><symbol viewBox="0 0 24 24" id="arrow-right" xmlns="http://www.w3.org/2000/svg"><path fill-rule="evenodd" clip-rule="evenodd" d="M5 13h11.865l-3.633 4.36a1 1 0 1 0 1.537 1.28l5-6c.039-.047.058-.102.087-.154.024-.042.053-.078.071-.124a.985.985 0 0 0 .072-.358L20 12l-.001-.004a.985.985 0 0 0-.072-.358c-.018-.046-.047-.082-.071-.124-.029-.052-.048-.107-.087-.154l-5-6a1.002 1.002 0 0 0-1.409-.128 1 1 0 0 0-.128 1.408L16.865 11H5a1 1 0 0 0 0 2Z"/></symbol><symbol viewBox="0 0 22 24" id="basket" xmlns="http://www.w3.org/2000/svg"><g clip-path="url(#aca)"><path d="M10.363 18.443a2.046 2.046 0 0 0-2.045 2.042 2.046 2.046 0 0 0 4.09 0 2.046 2.046 0 0 0-2.045-2.042Zm6.134 0a2.046 2.046 0 0 0-2.045 2.042 2.046 2.046 0 0 0 4.089 0 2.046 2.046 0 0 0-2.044-2.042Zm3.978-8.199L7.413 6.891a.614.614 0 0 0-.75.73L8.67 16.4h-.786L5.482 5.895a.613.613 0 0 0-.474-.464l-4.27-.882A.614.614 0 0 0 .489 5.75l3.885.802L6.797 17.15a.613.613 0 0 0 .598.477h12.07a.615.615 0 0 0 .607-.53l.858-6.175a.613.613 0 0 0-.455-.678Zm-8.14 3.91a.613.613 0 0 1-1.227 0v-2.696a.613.613 0 0 1 1.227 0v2.696Zm2.625 0a.613.613 0 0 1-1.227 0v-1.88a.613.613 0 0 1 1.227 0v1.88Zm2.625 0a.613.613 0 0 1-1.227 0v-1.226a.613.613 0 0 1 1.227 0v1.226Z"/></g><path fill-rule="evenodd" clip-rule="evenodd" d="M16.268 4.568a2.996 2.996 0 0 0-1.693-.523c-.627 0-1.21.193-1.693.523-.28-.843-.492-1.752-.492-2.383C12.39.98 13.37 0 14.575 0s2.185.98 2.185 2.185c0 .631-.212 1.54-.492 2.383Zm-4.722 2.274.024.006v-.011l-.024.005Zm4.972 1.217c-1.333-.33-2.766-.681-4.129-1.013a2.185 2.185 0 1 1 4.129 1.013Zm4.436 1.103c-.866-.217-2.155-.538-3.618-.9a2.995 2.995 0 0 0 .243-1.425c.87.18 1.762.45 2.308.765.596.344.969.928 1.067 1.56ZM9.869 6.439c-.36-.086-.706-.167-1.03-.243a2.19 2.19 0 0 1-.376-2.667 2.188 2.188 0 0 1 3.147-.7c.098.738.338 1.599.61 2.353a3.01 3.01 0 0 0-.449.774c-.628.113-1.305.278-1.902.483Zm10.124.075a3.43 3.43 0 0 1-.217.114c-.696-.295-1.587-.526-2.397-.672a3.01 3.01 0 0 0-.449-.774c.262-.727.494-1.553.599-2.273.095-.067.189-.128.278-.18a2.188 2.188 0 0 1 2.986.8 2.188 2.188 0 0 1-.8 2.985Z"/><defs><clipPath id="aca"><path transform="translate(0 3.064)" d="M0 0h20.936v20.936H0z"/></clipPath></defs></symbol><symbol viewBox="0 0 32 32" id="camera" xmlns="http://www.w3.org/2000/svg"><path fill-rule="evenodd" clip-rule="evenodd" d="M12 16.583a3.921 3.921 0 0 0 3.917 3.917 3.921 3.921 0 0 0 3.916-3.917 3.921 3.921 0 0 0-3.916-3.917A3.921 3.921 0 0 0 12 16.583Zm2.5 0c0-.781.636-1.417 1.417-1.417a1.418 1.418 0 0 1 0 2.834 1.418 1.418 0 0 1-1.417-1.417Z"/><path fill-rule="evenodd" clip-rule="evenodd" d="M7.722 25.833h16.39a3.726 3.726 0 0 0 3.721-3.722v-7.334a3.702 3.702 0 0 0-2.057-3.329l-2.6-1.3a1.215 1.215 0 0 1-.676-1.093 3.726 3.726 0 0 0-3.722-3.722h-5.723a3.726 3.726 0 0 0-3.722 3.722c0 .466-.259.885-.675 1.093l-2.6 1.3A3.702 3.702 0 0 0 4 14.778v7.333a3.726 3.726 0 0 0 3.722 3.722Zm4.111-16.778c0-.674.549-1.222 1.222-1.222h5.723c.674 0 1.222.548 1.222 1.222 0 1.419.788 2.695 2.058 3.33l2.6 1.3c.416.208.675.627.675 1.092v7.334c0 .674-.548 1.222-1.222 1.222H7.722A1.224 1.224 0 0 1 6.5 22.111v-7.334c0-.465.259-.884.676-1.093l2.6-1.3a3.702 3.702 0 0 0 2.057-3.329Z"/></symbol><symbol viewBox="0 0 344.96 344.96" id="check" xmlns="http://www.w3.org/2000/svg"><g data-name="Слой 2"><path class="aecls-1" d="m321.85 86.24-40-23.11-23.1-40H212.5L172.48 0l-40 23.11H86.24l-23.11 40-40 23.1v46.21L0 172.48l23.11 40v46.21l40 23.11 23.11 40h46.21l40 23.1 40-23.11h46.21l23.11-40 40-23.11V212.5l23.11-40-23.11-40V86.24ZM156.91 243.07a16.79 16.79 0 0 1-23.34 0l-50.45-50.44a16.19 16.19 0 0 1 0-22.89l13.35-13.35a16.19 16.19 0 0 1 22.89 0l25.87 25.87 80.34-80.35a16.19 16.19 0 0 1 22.89 0l13.35 13.35a16.19 16.19 0 0 1 0 22.89Z" data-name="Capa 1"/></g></symbol><symbol viewBox="0 0 24 24" id="chevron-right" xmlns="http://www.w3.org/2000/svg"><path fill-rule="evenodd" clip-rule="evenodd" d="M10 19a1 1 0 0 1-.768-1.64l4.476-5.371-4.316-5.362a1 1 0 0 1 1.56-1.254l4.828 6a1 1 0 0 1-.011 1.267l-5 6a1 1 0 0 1-.77.36Z"/></symbol><symbol viewBox="0 0 24 24" id="chevron-up" xmlns="http://www.w3.org/2000/svg"><path fill-rule="evenodd" clip-rule="evenodd" d="M18 15a.996.996 0 0 1-.64-.232l-5.371-4.476-5.362 4.315a.999.999 0 1 1-1.253-1.558l6-4.828a.998.998 0 0 1 1.267.011l6 5A1 1 0 0 1 18 15Z"/></symbol><symbol viewBox="0 0 24 24" id="chevronLeft" xmlns="http://www.w3.org/2000/svg"><path d="m15 19-7-7 7-7"/></symbol><symbol viewBox="0 0 24 24" id="chevronRight" xmlns="http://www.w3.org/2000/svg"><path d="m9 5 7 7-7 7"/></symbol><symbol viewBox="0 0 24 24" id="comments" xmlns="http://www.w3.org/2000/svg"><path fill-rule="evenodd" clip-rule="evenodd" d="M7 10a1 1 0 1 1 2 0 1 1 0 0 1-2 0Zm5-1a1 1 0 1 0 0 2 1 1 0 0 0 0-2Zm4 0a1 1 0 1 0 0 2 1 1 0 0 0 0-2Zm4 6c0 .551-.449 1-1 1H8.554c-.543 0-1.077.148-1.544.428L4 18.234V5c0-.551.449-1 1-1h14c.551 0 1 .449 1 1v10ZM19 2H5C3.346 2 2 3.346 2 5v15a1 1 0 0 0 1.515.857l4.524-2.714A.997.997 0 0 1 8.554 18H19c1.654 0 3-1.346 3-3V5c0-1.654-1.346-3-3-3Z"/></symbol><symbol viewBox="0 0 24 24" id="cross" xmlns="http://www.w3.org/2000/svg"><path d="M18 18 6 6m12 0L6 18"/></symbol><symbol viewBox="0 0 24 24" id="del" xmlns="http://www.w3.org/2000/svg"><path fill-rule="evenodd" clip-rule="evenodd" d="M7.004 10.248a.748.748 0 0 1 1.495 0V18a.5.5 0 0 0 .5.5h6.01a.5.5 0 0 0 .5-.5v-7.752a.748.748 0 1 1 1.495 0V18a2 2 0 0 1-2 2h-6a2 2 0 0 1-2-2v-7.752ZM9 5.5A1.5 1.5 0 0 1 10.5 4h3A1.5 1.5 0 0 1 15 5.5v1h2.25a.75.75 0 0 1 0 1.5H6.75a.75.75 0 1 1 0-1.5H9v-1Zm1.5 0h3v1h-3v-1Z"/></symbol><symbol viewBox="0 0 24 24" id="dislike" xmlns="http://www.w3.org/2000/svg"><path d="M11.307 20.134a14.54 14.54 0 0 1-.091.772 2.002 2.002 0 0 1-.117.466c-.042.096-.08.132-.11.15-.032.021-.1.05-.249.05-.466 0-1.03-.207-1.476-.586-.441-.375-.735-.888-.735-1.486 0-.725.097-1.83.197-2.768a75.107 75.107 0 0 1 .182-1.547l.013-.097.003-.025v-.006l.001-.002.065-.486H4.315c-.688 0-1.138-.215-1.422-.54-.293-.334-.464-.845-.464-1.53 0-.56.109-.83.242-1.164l.002-.004v-.001l.002-.005a4.85 4.85 0 0 0 .242-.726v-.001c.076-.32.05-.653.03-.93l-.002-.03c-.037-.493-.065-.94.188-1.447.229-.455.533-.759.844-1.064l.03-.03c.256-.25.563-.55.71-.949l.002-.004.012-.034c.096-.262.25-.672.605-1.023.343-.34.908-.658 1.891-.658H11c1.627 0 2.487.196 2.953.564.427.338.616.905.614 2.006v5.697c-.66.478-1.279 1.312-1.778 2.221-.56 1.019-1.007 2.2-1.21 3.252-.147.766-.215 1.42-.27 1.944l-.002.021Zm8.257-7.308a.857.857 0 0 1-.244.494l.302.302-.302-.302a.857.857 0 0 1-.494.243 2.965 2.965 0 0 1-.326.008c-.213 0-.277-.001-.325-.008a.858.858 0 0 1-.74-.737v-.001a2.967 2.967 0 0 1-.007-.326V5.5c0-.214.001-.278.008-.325v-.002a.857.857 0 0 1 .736-.738c.05-.006.118-.006.328-.006.213 0 .278 0 .326.007a.857.857 0 0 1 .738.738c.006.048.007.112.007.326v7c0 .213 0 .277-.007.326Z"/></symbol><symbol viewBox="0 0 24 24" id="dots" xmlns="http://www.w3.org/2000/svg"><path d="M12 7a1.5 1.5 0 1 1 0-3 1.5 1.5 0 0 1 0 3Zm0 6.5a1.5 1.5 0 1 1 0-3 1.5 1.5 0 0 1 0 3Zm0 6.5a1.5 1.5 0 1 1 0-3 1.5 1.5 0 0 1 0 3Z"/></symbol><symbol viewBox="0 0 24 24" id="eye" xmlns="http://www.w3.org/2000/svg"><path fill-rule="evenodd" clip-rule="evenodd" d="M12 13.5c-.827 0-1.5-.673-1.5-1.5s.673-1.5 1.5-1.5 1.5.673 1.5 1.5-.673 1.5-1.5 1.5Zm0-5c-1.93 0-3.5 1.57-3.5 3.5s1.57 3.5 3.5 3.5 3.5-1.57 3.5-3.5-1.57-3.5-3.5-3.5Zm.22 8.497c-4.306.1-7.115-3.583-8.047-5.002 1.026-1.605 3.61-4.89 7.608-4.993 4.289-.109 7.114 3.583 8.046 5.002-1.025 1.605-3.61 4.891-7.607 4.993Zm9.648-5.495c-.638-1.112-4.162-6.686-10.138-6.5-5.528.14-8.743 5.01-9.597 6.5a.999.999 0 0 0 0 .995c.629 1.097 4.029 6.502 9.892 6.502l.246-.003c5.527-.141 8.743-5.01 9.597-6.5a1.004 1.004 0 0 0 0-.994Z"/></symbol><symbol viewBox="0 0 24 24" id="fb" xmlns="http://www.w3.org/2000/svg"><path d="M13.397 20.997v-8.196h2.765l.411-3.209h-3.176V7.548c0-.926.258-1.56 1.587-1.56h1.684v-2.86A22.108 22.108 0 0 0 14.201 3c-2.444 0-4.122 1.492-4.122 4.231v2.355H7.332v3.21h2.753v8.201h3.312Z"/></symbol><symbol viewBox="0 0 24 24" id="instagram" xmlns="http://www.w3.org/2000/svg"><path d="M11.999 7.377a4.624 4.624 0 1 0 0 9.248 4.624 4.624 0 0 0 0-9.248Zm0 7.627a3.004 3.004 0 1 1 0-6.008 3.004 3.004 0 0 1 0 6.008Zm4.807-6.719a1.078 1.078 0 1 0 0-2.156 1.078 1.078 0 0 0 0 2.156Z"/><path d="M20.533 6.11A4.605 4.605 0 0 0 17.9 3.48a6.607 6.607 0 0 0-2.186-.42c-.963-.042-1.268-.054-3.71-.054s-2.755 0-3.71.054a6.554 6.554 0 0 0-2.184.42 4.6 4.6 0 0 0-2.633 2.63 6.585 6.585 0 0 0-.419 2.186c-.043.962-.056 1.267-.056 3.71 0 2.442 0 2.753.056 3.71.015.748.156 1.486.419 2.187a4.61 4.61 0 0 0 2.634 2.632 6.583 6.583 0 0 0 2.185.45c.963.042 1.268.055 3.71.055s2.755 0 3.71-.055a6.616 6.616 0 0 0 2.186-.42 4.613 4.613 0 0 0 2.633-2.632c.263-.7.404-1.438.419-2.186.043-.962.056-1.267.056-3.71s0-2.753-.056-3.71a6.583 6.583 0 0 0-.421-2.217Zm-1.218 9.533a5.046 5.046 0 0 1-.311 1.688 2.987 2.987 0 0 1-1.712 1.71c-.535.2-1.1.305-1.67.312-.95.044-1.218.055-3.654.055-2.438 0-2.687 0-3.655-.055a4.961 4.961 0 0 1-1.67-.311 2.984 2.984 0 0 1-1.718-1.711 5.08 5.08 0 0 1-.311-1.67c-.043-.95-.053-1.217-.053-3.653 0-2.437 0-2.686.053-3.655a5.038 5.038 0 0 1 .311-1.687c.305-.79.93-1.41 1.719-1.712a5.01 5.01 0 0 1 1.669-.311c.95-.043 1.218-.055 3.655-.055s2.687 0 3.654.055a4.96 4.96 0 0 1 1.67.31 2.99 2.99 0 0 1 1.712 1.713 5.06 5.06 0 0 1 .311 1.669c.043.95.054 1.218.054 3.655 0 2.436 0 2.698-.043 3.654h-.011v-.001Z"/></symbol><symbol viewBox="0 0 24 24" id="like" xmlns="http://www.w3.org/2000/svg"><path d="M12.693 3.866c.031-.306.057-.559.091-.772a1.98 1.98 0 0 1 .117-.466c.042-.096.08-.132.11-.15.032-.021.1-.05.249-.05.466 0 1.03.207 1.476.586.441.375.735.888.735 1.486 0 .725-.097 1.83-.197 2.768a76.19 76.19 0 0 1-.182 1.547l-.013.097-.003.025v.006l-.001.002-.065.486h4.675c.688 0 1.138.215 1.422.54.293.334.464.845.464 1.53 0 .56-.109.83-.242 1.164l-.002.004v.001l-.002.005c-.078.195-.17.425-.242.726v.001c-.076.32-.05.653-.03.93l.002.03c.037.493.065.94-.188 1.447-.229.455-.534.758-.844 1.064l-.03.03c-.256.25-.563.55-.71.949l-.002.004-.012.034c-.096.262-.25.672-.605 1.023-.343.34-.908.658-1.892.658H13c-1.627 0-2.487-.196-2.953-.564-.427-.338-.616-.905-.614-2.006v-5.697c.66-.478 1.279-1.312 1.778-2.221.56-1.019 1.007-2.2 1.21-3.252.147-.766.215-1.42.27-1.944l.002-.021Zm-8.257 7.308a.857.857 0 0 1 .244-.494l-.301-.302.301.302a.857.857 0 0 1 .494-.243c.049-.007.113-.008.326-.008.213 0 .277.001.325.008a.857.857 0 0 1 .74.737v.001c.006.048.007.112.007.326V18.5c0 .214-.001.278-.008.325v.002a.857.857 0 0 1-.736.738c-.05.006-.118.006-.328.006-.213 0-.278 0-.327-.007a.858.858 0 0 1-.737-.738 2.982 2.982 0 0 1-.007-.326v-7c0-.213 0-.277.007-.326Z"/></symbol><symbol viewBox="0 0 24 24" id="log-out" xmlns="http://www.w3.org/2000/svg"><path fill-rule="evenodd" clip-rule="evenodd" d="M8 5c0 .55-.45 1-1 1H6v12h1c.55 0 1 .45 1 1s-.45 1-1 1H5c-.55 0-1-.45-1-1V5c0-.55.45-1 1-1h2c.55 0 1 .45 1 1Zm10.004 2.425 2.814 4A.998.998 0 0 1 20.8 12.6l-3 4a.998.998 0 0 1-1.4.2.999.999 0 0 1-.2-1.4L18 13h-8a1 1 0 1 1 0-2h8a.15.15 0 0 1 .047.009.2.2 0 0 0 .039.009l-1.718-2.443a1 1 0 1 1 1.636-1.15Z"/></symbol><symbol viewBox="0 0 24 24" id="ok" xmlns="http://www.w3.org/2000/svg"><path fill-rule="evenodd" clip-rule="evenodd" d="M13.081 14.467a5.123 5.123 0 0 0 1.552-.62.74.74 0 0 0 .246-1.043.8.8 0 0 0-1.08-.237 3.497 3.497 0 0 1-3.6 0 .799.799 0 0 0-1.08.237.74.74 0 0 0 .246 1.043 5.15 5.15 0 0 0 1.552.62L9.423 15.91a.738.738 0 0 0 0 1.07.8.8 0 0 0 .554.22.8.8 0 0 0 .555-.22L12 15.561l1.469 1.417a.803.803 0 0 0 1.107 0 .737.737 0 0 0 0-1.07l-1.495-1.442Zm1.585-4.686c0 1.422-1.198 2.58-2.673 2.58-1.474 0-2.673-1.158-2.673-2.58 0-1.424 1.2-2.58 2.673-2.58 1.474 0 2.673 1.157 2.673 2.58Zm-1.568 0c0-.59-.496-1.068-1.107-1.068-.61 0-1.107.478-1.107 1.068 0 .589.496 1.068 1.107 1.068.61 0 1.107-.48 1.107-1.068Z"/></symbol><symbol viewBox="0 0 24 24" id="plus" xmlns="http://www.w3.org/2000/svg"><path fill-rule="evenodd" clip-rule="evenodd" d="M19 11h-6V5a1 1 0 1 0-2 0v6H5a1 1 0 1 0 0 2h6v6a1 1 0 1 0 2 0v-6h6a1 1 0 1 0 0-2Z"/></symbol><symbol viewBox="0 0 24 24" id="rightUp" xmlns="http://www.w3.org/2000/svg"><path fill-rule="evenodd" clip-rule="evenodd" d="M17.993 7.049A1 1 0 0 0 17 6.05L9.006 6H9a1 1 0 0 0-.006 2l5.558.035-8.259 8.258a.999.999 0 1 0 1.414 1.414l8.288-8.288.005 5.582A1 1 0 0 0 17 16h.001a1 1 0 0 0 1-1.001l-.008-7.95Z"/></symbol><symbol viewBox="0 0 24 24" id="search" xmlns="http://www.w3.org/2000/svg"><path fill-rule="evenodd" clip-rule="evenodd" d="M5 11c0-3.309 2.691-6 6-6s6 2.691 6 6-2.691 6-6 6-6-2.691-6-6Zm15.707 8.293-3.395-3.396A7.952 7.952 0 0 0 19 11c0-4.411-3.589-8-8-8s-8 3.589-8 8 3.589 8 8 8a7.952 7.952 0 0 0 4.897-1.688l3.396 3.395a.997.997 0 0 0 1.414 0 .999.999 0 0 0 0-1.414Z"/></symbol><symbol viewBox="0 0 16 16" id="telegram" xmlns="http://www.w3.org/2000/svg"><path d="m14.629 3.698-2.012 9.618c-.152.679-.548.848-1.11.528l-3.066-2.29-1.48 1.442c-.163.166-.3.305-.616.305l.22-3.165 5.683-5.204c.247-.223-.054-.347-.384-.123L4.839 9.29l-3.024-.959c-.658-.208-.67-.667.137-.986L13.78 2.727c.548-.208 1.027.124.849.971Z"/></symbol><symbol viewBox="0 0 24 24" id="tg" xmlns="http://www.w3.org/2000/svg"><path d="m10.238 13.336-.179 2.345c.256 0 .367-.102.5-.225l1.198-1.07 2.483 1.698c.455.237.776.112.899-.391l1.63-7.128c.145-.629-.243-.875-.687-.72l-9.58 3.423c-.654.237-.645.577-.112.731l2.45.711 5.69-3.322c.267-.166.51-.074.31.091l-4.602 3.857Z"/></symbol><symbol viewBox="0 0 24 24" id="viber" xmlns="http://www.w3.org/2000/svg"><path d="M13.212 6h-2.424c-2.334 0-4.243 1.89-4.243 4.198v1.8A4.21 4.21 0 0 0 8.97 15.79v2.01c0 .179.227.269.348.134l1.758-1.74h2.136c2.333 0 4.242-1.889 4.242-4.197v-1.8C17.454 7.89 15.545 6 13.212 6Zm1.591 7.872-.621.6c-.652.63-2.334-.09-3.818-1.59-1.485-1.5-2.137-3.179-1.516-3.808l.606-.6c.228-.225.607-.21.864.015l.879.9c.318.314.182.854-.227.974-.288.09-.485.405-.394.69.151.66 1 1.5 1.636 1.664.288.06.606-.09.712-.375.137-.405.682-.524.985-.21l.879.9c.242.21.242.585.015.84Zm-2.258-5.023c-.06 0-.12 0-.181.015-.107.015-.213-.075-.228-.18-.015-.105.076-.21.182-.225.076-.015.152-.015.227-.015 1.107 0 2.016.9 2.016 1.994 0 .075 0 .15-.016.225-.015.105-.12.195-.227.18-.106-.015-.197-.12-.182-.225 0-.06.016-.12.016-.18.015-.87-.713-1.59-1.607-1.59Zm1.213 1.604a.2.2 0 0 1-.197.195.2.2 0 0 1-.197-.195.804.804 0 0 0-.803-.795.2.2 0 0 1-.197-.194.2.2 0 0 1 .197-.195 1.184 1.184 0 0 1 1.197 1.184Zm1.545.645a.213.213 0 0 1-.258.15.192.192 0 0 1-.136-.24c.045-.18.06-.36.06-.555 0-1.32-1.09-2.399-2.424-2.399h-.181c-.107 0-.213-.075-.213-.18s.076-.21.182-.21c.076 0 .152-.015.212-.015 1.561 0 2.834 1.26 2.834 2.804 0 .21-.03.435-.076.645Z"/></symbol><symbol viewBox="0 0 24 24" id="vk" xmlns="http://www.w3.org/2000/svg"><path d="M21.579 6.855c.14-.465 0-.806-.662-.806h-2.193c-.558 0-.813.295-.953.619 0 0-1.115 2.719-2.695 4.482-.51.513-.743.675-1.021.675-.139 0-.341-.162-.341-.627V6.855c0-.558-.161-.806-.626-.806H9.642c-.348 0-.558.258-.558.504 0 .528.79.65.871 2.138v3.228c0 .707-.127.836-.407.836-.743 0-2.551-2.73-3.624-5.853-.209-.607-.42-.852-.98-.852H2.752c-.627 0-.752.295-.752.619 0 .582.743 3.462 3.461 7.27 1.812 2.602 4.363 4.012 6.687 4.012 1.393 0 1.565-.313 1.565-.853v-1.966c0-.626.133-.752.574-.752.324 0 .882.164 2.183 1.417 1.486 1.486 1.732 2.153 2.567 2.153h2.192c.626 0 .939-.313.759-.931-.197-.615-.907-1.51-1.849-2.57-.512-.603-1.277-1.253-1.51-1.578-.325-.42-.231-.604 0-.976.001 0 2.672-3.761 2.95-5.04Z"/></symbol><symbol viewBox="0 0 24 24" id="vkontakte" xmlns="http://www.w3.org/2000/svg"><path fill-rule="evenodd" clip-rule="evenodd" d="M12.2 14.975s.184-.021.278-.126c.087-.095.083-.276.083-.276s-.01-.843.369-.967c.374-.123.854.815 1.364 1.176.386.272.678.213.678.213l1.362-.02s.713-.046.375-.623c-.028-.047-.197-.428-1.012-1.208-.855-.818-.74-.685.288-2.1.627-.86.877-1.386.799-1.61-.075-.216-.536-.16-.536-.16l-1.533.01s-.114-.015-.198.037a.444.444 0 0 0-.136.17s-.242.666-.566 1.233c-.683 1.195-.956 1.258-1.068 1.184-.26-.173-.195-.695-.195-1.066 0-1.159.17-1.643-.332-1.767-.166-.042-.289-.069-.715-.073-.548-.007-1.011.001-1.273.134-.174.087-.31.284-.227.296.101.013.331.063.453.234.157.22.15.716.15.716s.091 1.363-.21 1.533c-.206.116-.49-.121-1.099-1.206-.206-.377-.39-.768-.547-1.17 0 0-.046-.114-.127-.176-.098-.075-.235-.098-.235-.098l-1.458.01s-.219.006-.299.104c-.07.088-.005.268-.005.268s1.14 2.752 2.433 4.14c1.184 1.271 2.53 1.188 2.53 1.188h.61Z"/></symbol><symbol viewBox="0 0 24 24" id="whatsapp" xmlns="http://www.w3.org/2000/svg"><path d="M12.001 6.6H12A5.405 5.405 0 0 0 6.6 12a5.36 5.36 0 0 0 1.028 3.165l-.673 2.006 2.076-.664A5.354 5.354 0 0 0 12 17.4a5.405 5.405 0 0 0 5.4-5.4c0-2.978-2.422-5.4-5.4-5.4Zm3.143 7.625c-.13.368-.648.673-1.06.762-.282.06-.65.108-1.891-.406-1.588-.658-2.61-2.27-2.689-2.375-.076-.104-.641-.854-.641-1.629s.393-1.152.552-1.314c.13-.133.345-.194.552-.194.067 0 .127.004.18.007.16.006.24.016.344.266.13.314.447 1.089.485 1.169.039.08.077.187.023.292-.05.108-.095.156-.175.248-.08.091-.155.162-.235.26-.073.086-.155.178-.063.336.092.155.409.673.876 1.089.603.537 1.091.708 1.266.781.13.054.286.041.381-.06.12-.13.27-.346.422-.559.108-.152.244-.171.387-.117.146.05.918.432 1.076.51.159.08.264.118.302.185.038.067.038.38-.092.75Z"/></symbol></svg>