<svg width="32" height="32" viewBox="0 0 32 32" fill="none" xmlns="http://www.w3.org/2000/svg">
<path fill-rule="evenodd" clip-rule="evenodd" d="M12 16.583C12 18.7427 13.757 20.4997 15.9167 20.4997C18.0763 20.4997 19.8333 18.7427 19.8333 16.583C19.8333 14.4233 18.0763 12.6663 15.9167 12.6663C13.757 12.6663 12 14.4233 12 16.583ZM14.5 16.583C14.5 15.8018 15.1355 15.1663 15.9167 15.1663C16.6978 15.1663 17.3333 15.8018 17.3333 16.583C17.3333 17.3642 16.6978 17.9997 15.9167 17.9997C15.1355 17.9997 14.5 17.3642 14.5 16.583Z" fill="white"/>
<path fill-rule="evenodd" clip-rule="evenodd" d="M7.72217 25.833H24.1112C26.1636 25.833 27.8333 24.1633 27.8333 22.1108V14.7775C27.8333 13.3585 27.0448 12.0828 25.7757 11.4483L23.1756 10.1483C22.7588 9.93993 22.5 9.52101 22.5 9.05517C22.5 7.00276 20.8303 5.33301 18.7778 5.33301H13.0554C11.0031 5.33301 9.33333 7.00276 9.33333 9.05517C9.33333 9.52109 9.07442 9.94001 8.65775 10.1483L6.05733 11.4484C4.78833 12.0831 4 13.3587 4 14.7775V22.1108C4 24.1633 5.66975 25.833 7.72217 25.833ZM11.8333 9.05517C11.8333 8.38126 12.3816 7.83301 13.0554 7.83301H18.7778C19.4518 7.83301 20 8.38126 20 9.05517C20 10.474 20.7884 11.7497 22.0576 12.3843L24.6578 13.6843C25.0745 13.8928 25.3333 14.3116 25.3333 14.7775V22.1108C25.3333 22.7848 24.7851 23.333 24.1112 23.333H7.72217C7.04825 23.333 6.5 22.7848 6.5 22.1108V14.7775C6.5 14.3116 6.75883 13.8928 7.1755 13.6844L9.77583 12.3843C11.0449 11.7498 11.8333 10.4741 11.8333 9.05517Z" fill="white"/>
</svg>
