<svg width="24" height="24" viewBox="0 0 24 24" fill="none" xmlns="http://www.w3.org/2000/svg">
<path fill-rule="evenodd" clip-rule="evenodd" d="M7.00389 10.2477C7.00389 9.83484 7.33861 9.50012 7.7515 9.50012C8.1644 9.50012 8.49911 9.83484 8.49911 10.2477V18.0001C8.49911 18.2763 8.72297 18.5001 8.99912 18.5001L15.0092 18.5001C15.2853 18.5001 15.5092 18.2762 15.5092 18.0001V10.2477C15.5092 9.83481 15.8439 9.50009 16.2568 9.50009C16.6697 9.50009 17.0044 9.83481 17.0044 10.2477V18.0001C17.0044 19.1047 16.109 20.0001 15.0044 20.0001L9.0039 20.0001C7.89933 20.0001 7.00389 19.1047 7.00389 18.0001V10.2477Z" fill="#181818"/>
<path fill-rule="evenodd" clip-rule="evenodd" d="M9 5.5C9 4.67157 9.67157 4 10.5 4H13.5C14.3284 4 15 4.67157 15 5.5V6.50012H17.25C17.6642 6.50012 18 6.83591 18 7.25012C18 7.66434 17.6642 8.00012 17.25 8.00012H6.75C6.33579 8.00012 6 7.66434 6 7.25012C6 6.83591 6.33579 6.50012 6.75 6.50012H9V5.5ZM10.5 5.5H13.5V6.5H10.5V5.5Z" fill="#181818"/>
</svg>
