<svg width="24" height="24" viewBox="0 0 24 24" fill="none" xmlns="http://www.w3.org/2000/svg">
<path d="M11.3072 20.1344L11.3071 20.1347C11.2757 20.4404 11.2496 20.6925 11.2158 20.906C11.1817 21.1213 11.1437 21.2692 11.0992 21.3718C11.0574 21.4679 11.0188 21.5041 10.9893 21.5227C10.9569 21.5431 10.8887 21.5714 10.74 21.5714C10.2741 21.5714 9.71022 21.365 9.2635 20.9857C8.82267 20.6114 8.52861 20.0983 8.52861 19.4997C8.52861 18.7752 8.62619 17.6705 8.72634 16.7318C8.77607 16.2657 8.82582 15.846 8.86314 15.5428C8.8818 15.3913 8.89734 15.2689 8.90819 15.1846L8.92076 15.0878L8.92405 15.0629L8.92488 15.0566L8.92508 15.0551L8.92513 15.0547L8.92514 15.0546L8.98984 14.5694H8.50033H4.3149C3.62697 14.5694 3.17716 14.3539 2.89264 14.0289C2.60002 13.6947 2.42918 13.1841 2.42918 12.4994C2.42918 11.9391 2.53754 11.6682 2.6709 11.3348L2.67258 11.3306L2.67282 11.33L2.6748 11.3251C2.7534 11.1295 2.84556 10.9001 2.91725 10.599L2.91754 10.5977C2.99277 10.2775 2.96786 9.94513 2.94704 9.66737C2.94631 9.65756 2.94558 9.64783 2.94486 9.63816L2.94485 9.63804C2.90801 9.14544 2.87967 8.69892 3.13295 8.19135C3.36159 7.73566 3.66649 7.43247 3.9774 7.1267C3.98717 7.11712 3.99701 7.10747 4.00694 7.09774C4.26305 6.84673 4.56981 6.54608 4.71687 6.14834L4.7169 6.14835L4.7185 6.14385L4.73063 6.10989C4.82727 5.84789 4.98183 5.43811 5.33646 5.08666C5.67921 4.747 6.24429 4.42857 7.22747 4.42857H10.9998C12.6274 4.42857 13.4869 4.62464 13.9525 4.99252C14.3804 5.3306 14.5693 5.89756 14.5672 6.99918V7V12.6957C13.9073 13.1735 13.2882 14.0078 12.7886 14.9172C12.2291 15.9357 11.7817 17.1177 11.5792 18.1689C11.4316 18.9349 11.3638 19.5881 11.3094 20.1132L11.3072 20.1344ZM19.5638 12.8262L19.5638 12.8262C19.539 13.0131 19.4533 13.1867 19.3199 13.3199L19.6215 13.6217L19.3199 13.3199C19.1865 13.4532 19.013 13.5388 18.826 13.5634L18.8251 13.5635C18.7775 13.5699 18.7134 13.5709 18.4998 13.5709C18.287 13.5709 18.2229 13.5699 18.1753 13.5635L18.1741 13.5634C17.987 13.5388 17.8132 13.4532 17.6797 13.3198C17.5462 13.1864 17.4605 13.0127 17.4358 12.8256L17.4357 12.8248C17.4293 12.7771 17.4283 12.7131 17.4283 12.4994V5.5C17.4283 5.28631 17.4293 5.22228 17.4357 5.17464L17.4358 5.1735C17.4604 4.98631 17.5461 4.81247 17.6796 4.67897C17.8127 4.54589 17.9858 4.46033 18.1723 4.43545C18.2225 4.42938 18.29 4.42857 18.4998 4.42857C18.7131 4.42857 18.7777 4.42951 18.8265 4.43599L18.8266 4.436C19.0135 4.46078 19.187 4.54648 19.3202 4.67985C19.4535 4.81321 19.5391 4.9868 19.5637 5.17371L19.5638 5.17464C19.5702 5.22228 19.5712 5.28631 19.5712 5.5V12.4994C19.5712 12.7128 19.5702 12.7773 19.5638 12.8262Z" fill="#9DA1A6" stroke="#9DA1A6" stroke-width="0.857143"/>
</svg>
