<svg width="24" height="24" viewBox="0 0 24 24" fill="none" xmlns="http://www.w3.org/2000/svg">
<path fill-rule="evenodd" clip-rule="evenodd" d="M12 13.5C11.173 13.5 10.5 12.827 10.5 12C10.5 11.173 11.173 10.5 12 10.5C12.827 10.5 13.5 11.173 13.5 12C13.5 12.827 12.827 13.5 12 13.5ZM12 8.5C10.07 8.5 8.5 10.07 8.5 12C8.5 13.93 10.07 15.5 12 15.5C13.93 15.5 15.5 13.93 15.5 12C15.5 10.07 13.93 8.5 12 8.5ZM12.2199 16.9974C7.91385 17.0974 5.10485 13.4144 4.17285 11.9954C5.19885 10.3904 7.78285 7.10436 11.7809 7.00236C16.0699 6.89336 18.8949 10.5854 19.8269 12.0044C18.8019 13.6094 16.2169 16.8954 12.2199 16.9974ZM21.8678 11.5016C21.2297 10.3896 17.7057 4.81564 11.7297 5.00264C6.20175 5.14264 2.98675 10.0126 2.13275 11.5016C1.95575 11.8096 1.95575 12.1886 2.13275 12.4966C2.76175 13.5936 6.16175 18.9986 12.0247 18.9986C12.1067 18.9986 12.1888 18.9976 12.2708 18.9956C17.7977 18.8546 21.0138 13.9856 21.8678 12.4966C22.0438 12.1886 22.0438 11.8096 21.8678 11.5016Z" fill="#9DA1A6"/>
</svg>
