<svg width="24" height="24" viewBox="0 0 24 24" fill="none" xmlns="http://www.w3.org/2000/svg">
<path d="M12.6928 3.86565L12.6929 3.86527C12.7243 3.5596 12.7504 3.30745 12.7842 3.094C12.8183 2.87875 12.8563 2.73079 12.9008 2.62818C12.9426 2.53205 12.9812 2.49586 13.0107 2.47727C13.0431 2.45686 13.1113 2.42857 13.26 2.42857C13.7259 2.42857 14.2898 2.63505 14.7365 3.01434C15.1773 3.38863 15.4714 3.90167 15.4714 4.50029C15.4714 5.22481 15.3738 6.32949 15.2737 7.26818C15.2239 7.73427 15.1742 8.15399 15.1369 8.45718C15.1182 8.60873 15.1027 8.73105 15.0918 8.81536L15.0792 8.91219L15.076 8.93714L15.0751 8.94339L15.0749 8.94491L15.0749 8.94527L15.0749 8.94535L15.0102 9.43057H15.4997H19.6851C20.373 9.43057 20.8228 9.64611 21.1074 9.97109C21.4 10.3053 21.5708 10.8159 21.5708 11.5006C21.5708 12.0609 21.4625 12.3318 21.3291 12.6652L21.3274 12.6694L21.3272 12.67L21.3252 12.6749C21.2466 12.8705 21.1544 13.0999 21.0828 13.401L21.0825 13.4023C21.0072 13.7225 21.0321 14.0549 21.053 14.3326C21.0537 14.3424 21.0544 14.3522 21.0551 14.3618L21.0552 14.362C21.092 14.8546 21.1203 15.3011 20.8671 15.8086C20.6384 16.2643 20.3335 16.5675 20.0226 16.8733C20.0128 16.8829 20.003 16.8925 19.9931 16.9023C19.7369 17.1533 19.4302 17.4539 19.2831 17.8517L19.2831 17.8516L19.2815 17.8561L19.2694 17.8901C19.1727 18.1521 19.0182 18.5619 18.6635 18.9133C18.3208 19.253 17.7557 19.5714 16.7725 19.5714H13.0002C11.3726 19.5714 10.5131 19.3754 10.0475 19.0075C9.61961 18.6694 9.43072 18.1024 9.43282 17.0008V17V11.3043C10.0927 10.8265 10.7118 9.99217 11.2114 9.08278C11.7709 8.06427 12.2183 6.88225 12.4208 5.83107C12.5684 5.06508 12.6362 4.41186 12.6906 3.88682L12.6928 3.86565ZM4.43624 11.1738L4.43624 11.1738C4.46102 10.9869 4.54673 10.8133 4.68009 10.6801L4.37851 10.3783L4.68009 10.6801C4.81346 10.5468 4.98704 10.4612 5.17396 10.4366L5.17489 10.4365C5.22253 10.4301 5.28656 10.4291 5.50024 10.4291C5.71304 10.4291 5.77709 10.4301 5.82474 10.4365L5.82593 10.4366C6.01303 10.4612 6.18681 10.5468 6.3203 10.6802C6.45379 10.8136 6.53952 10.9873 6.56421 11.1744L6.56433 11.1752C6.57071 11.2229 6.57167 11.2869 6.57167 11.5006V18.5C6.57167 18.7137 6.57071 18.7777 6.56433 18.8254L6.56418 18.8265C6.5396 19.0137 6.45391 19.1875 6.32042 19.321C6.18734 19.4541 6.01418 19.5397 5.82767 19.5646C5.77751 19.5706 5.71005 19.5714 5.50024 19.5714C5.28688 19.5714 5.22235 19.5705 5.17346 19.564L5.17343 19.564C4.98653 19.5392 4.81301 19.4535 4.67975 19.3202C4.54649 19.1868 4.46092 19.0132 4.43629 18.8263L4.43616 18.8254C4.42978 18.7777 4.42882 18.7137 4.42882 18.5V11.5006C4.42882 11.2872 4.42975 11.2227 4.43624 11.1738Z" fill="#9DA1A6" stroke="#9DA1A6" stroke-width="0.857143"/>
</svg>
