<svg width="24" height="24" viewBox="0 0 24 24" fill="none" xmlns="http://www.w3.org/2000/svg">
<path d="M15.9836 15.0233L19.7435 16.7039C20.8106 17.1808 21.5 18.2518 21.5 19.4323C21.5 19.7458 21.2488 20 20.939 20H12.8651C11.3587 20 9.98508 19.102 9.36567 17.7122L7.57674 13.6979C7.23608 12.9334 6.48056 12.4395 5.65198 12.4395C3.91407 12.4395 2.5 11.0085 2.5 9.24959V9.18445C2.5 7.3212 3.19102 5.54435 4.44578 4.18091C4.61552 3.99636 4.88515 3.94722 5.10795 4.06032C5.15245 4.08292 6.21427 4.62879 7.57094 5.90539C8.81019 7.07137 10.551 9.1045 11.8069 12.1682C12.8911 14.8132 13.8746 15.3628 14.3643 15.4548C14.9438 15.5638 15.3467 15.1555 15.3506 15.1514C15.5138 14.9777 15.767 14.9266 15.9836 15.0233Z" fill="#484848"/>
<path d="M3.69475 19.4513C3.69388 19.4235 3.60879 17.0974 2.99851 12.6378C3.72794 13.2242 4.65017 13.5749 5.65198 13.5749C5.85637 13.5749 6.05105 13.6396 6.21311 13.7526V19.4323C6.21311 19.7458 5.9619 20 5.65198 20H4.25545C3.95292 20 3.7049 19.7572 3.69475 19.4513Z" fill="#484848"/>
</svg>
