<svg width="24" height="24" viewBox="0 0 24 24" fill="none" xmlns="http://www.w3.org/2000/svg">
<path d="M13.5013 3.00243C13.776 2.97418 14 3.19528 14 3.47142V5.47618C14 5.75233 13.7761 5.97618 13.5 5.97618H10.5C10.2239 5.97618 10.0095 5.75037 10.0839 5.48444C10.1916 5.09932 10.4377 4.53616 11 3.97301C11.686 3.28593 12.8426 3.07018 13.5013 3.00243Z" fill="#484848"/>
<path fill-rule="evenodd" clip-rule="evenodd" d="M9.5 7.17804C9.22386 7.17804 9 7.4019 9 7.67804V14.9905H8.5C8.22386 14.9905 8 15.2143 8 15.4905V20.5C8 20.7761 8.22386 21 8.5 21H15.5C15.7761 21 16 20.7761 16 20.5V15.4905C16 15.2143 15.7761 14.9905 15.5 14.9905H15V7.67804C15 7.4019 14.7761 7.17804 14.5 7.17804H9.5ZM10.5 8.98095C10.2239 8.98095 10 9.20481 10 9.48095V12.4873C10 12.7634 10.2239 12.9873 10.5 12.9873H11C11.2761 12.9873 11.5 12.7634 11.5 12.4873V9.48095C11.5 9.20481 11.2761 8.98095 11 8.98095H10.5Z" fill="#484848"/>
</svg>
