<svg width="24" height="24" viewBox="0 0 24 24" fill="none" xmlns="http://www.w3.org/2000/svg">
<path fill-rule="evenodd" clip-rule="evenodd" d="M9.45923 16.0388L13.4648 12.4549L16.5777 19.1254C16.7245 19.4398 17.139 19.5128 17.3844 19.2675L18.1855 18.4663C18.3064 18.3455 18.3571 18.1712 18.3201 18.0043L16.4861 9.75162L18.0123 8.38613C18.8526 7.54895 20.0123 5.38613 19.0123 4.38613C18.0123 3.38613 15.8526 4.54855 15.0123 5.38613L13.4996 7.07671L5.64753 5.3318C5.48065 5.29472 5.30639 5.34546 5.18551 5.46634L4.38436 6.26749C4.13901 6.51284 4.21204 6.9274 4.52647 7.07413L10.8582 10.0289L7.25506 14.0559L4.71125 14.2473C4.51034 14.2624 4.33813 14.3966 4.27442 14.5878L4.02576 15.3338C3.94324 15.5813 4.06496 15.8507 4.30527 15.9524L6.51225 16.8861L7.8918 19.3881C8.013 19.6079 8.27837 19.7038 8.51207 19.6122L9.07035 19.3934C9.25772 19.32 9.38282 19.1414 9.38777 18.9402L9.45923 16.0388Z" fill="#484848"/>
</svg>
