<svg width="24" height="24" viewBox="0 0 24 24" fill="none" xmlns="http://www.w3.org/2000/svg">
<path d="M18.6756 3.81261L17.2876 5.2003C16.9003 5.58757 16.8745 6.19941 17.2101 6.61663L17.2876 6.7029L17.2971 6.7124C17.6844 7.09967 18.2962 7.12549 18.7134 6.78985L18.7997 6.7124L20.1874 5.32439C20.7571 6.51675 20.5481 7.98817 19.5605 8.9758C18.5729 9.96343 17.1014 10.1724 15.9091 9.60268L9.60268 15.9091C10.1724 17.1014 9.96343 18.5729 8.9758 19.5605C7.98817 20.5481 6.51675 20.7571 5.32439 20.1874L6.7124 18.7997C7.09967 18.4124 7.12549 17.8006 6.78985 17.3834L6.7124 17.2971L6.7029 17.2876C6.31563 16.9003 5.70378 16.8745 5.28657 17.2101L5.2003 17.2876L3.81261 18.6756C3.24291 17.4833 3.45187 16.0118 4.4395 15.0242C5.42713 14.0366 6.89855 13.8276 8.0909 14.3973L14.3973 8.0909C13.8276 6.89855 14.0366 5.42713 15.0242 4.4395C16.0118 3.45187 17.4833 3.24291 18.6756 3.81261ZM15.0242 12L19.57 16.5458C20.3999 17.3757 20.3999 18.7211 19.57 19.551L19.551 19.57C18.7211 20.3999 17.3757 20.3999 16.5458 19.57L12 15.0242L15.0242 12ZM13.8925 14.6438C13.7015 14.8348 13.6824 15.1264 13.8317 15.334L13.8878 15.3999L16.9167 18.4288C17.1034 18.6155 17.3946 18.6342 17.6022 18.4848L17.668 18.4288C17.859 18.2378 17.8781 17.9462 17.7288 17.7386L17.6728 17.6728L14.6438 14.6438C14.4363 14.4363 14.1 14.4363 13.8925 14.6438ZM5.19555 3.68345L7.33142 5.20907C7.57017 5.3796 7.62546 5.7114 7.45493 5.95015C7.43792 5.97396 7.41897 5.99632 7.39828 6.01701L7.4637 5.9516L11.2439 9.73185L9.73185 11.2439L5.9516 7.4637C5.74872 7.66658 5.41235 7.66657 5.20489 7.45911C5.18015 7.43437 5.15792 7.40725 5.13851 7.37814L3.68345 5.19555L5.19555 3.68345Z" fill="#484848"/>
</svg>
