<svg width="24" height="24" viewBox="0 0 24 24" fill="none" xmlns="http://www.w3.org/2000/svg">
<path fill-rule="evenodd" clip-rule="evenodd" d="M19.4998 2L22.0001 4.5003L19.5001 7.00061H18.4137L15.1366 10.2778C16.0198 11.3938 17.277 13.5365 15.6118 15.2008C15.0296 15.7828 14.544 16.0051 14.0986 16.209C13.7215 16.3816 13.3733 16.541 13.0199 16.8943C12.6273 17.2867 12.5968 17.6919 12.5611 18.1675C12.5102 18.8431 12.4487 19.6609 11.3238 20.786C8.16927 23.9393 4.0396 19.9526 4.0396 19.9526C3.84689 19.749 0.141091 15.7506 3.2145 12.6784C4.3397 11.5529 5.15763 11.4906 5.83349 11.4391C6.30903 11.4028 6.71423 11.3719 7.10664 10.9798C7.46014 10.6265 7.61913 10.2781 7.79131 9.90063C7.99464 9.45496 8.21637 8.96895 8.79851 8.38703C10.2669 6.91866 12.4916 8.09528 13.6723 8.91358L16.9998 5.58613L16.9995 4.5003L19.4998 2ZM9.68612 11.3532C8.87564 12.1681 8.878 13.4853 9.69138 14.2972C10.5048 15.1092 11.822 15.1092 12.6354 14.2972C13.4488 13.4853 13.4511 12.1681 12.6406 11.3532C12.2496 10.9601 11.7179 10.739 11.1634 10.739C10.6088 10.739 10.0772 10.9601 9.68612 11.3532ZM4.85368 15.2071C4.65842 15.4024 4.65842 15.719 4.85368 15.9142L8.14657 19.2071C8.34183 19.4024 8.65842 19.4024 8.85368 19.2071L9.20723 18.8536C9.40249 18.6583 9.40249 18.3417 9.20723 18.1464L5.91434 14.8536C5.71908 14.6583 5.40249 14.6583 5.20723 14.8536L4.85368 15.2071Z" fill="#484848"/>
</svg>
