<svg width="24" height="24" viewBox="0 0 24 24" fill="none" xmlns="http://www.w3.org/2000/svg">
<path d="M13.2121 6H10.7878C8.4545 6 6.54541 7.88921 6.54541 10.1983V11.9975C6.54541 13.6168 7.49996 15.1012 8.96965 15.7909V17.8001C8.96965 17.98 9.19693 18.07 9.31814 17.935L11.0757 16.1958H13.2121C15.5454 16.1958 17.4545 14.3065 17.4545 11.9975V10.1983C17.4545 7.88921 15.5454 6 13.2121 6ZM14.803 13.8717L14.1818 14.4715C13.5303 15.1012 11.8484 14.3815 10.3636 12.8821C8.87874 11.3828 8.22723 9.70346 8.84844 9.07372L9.4545 8.47397C9.68177 8.24906 10.0606 8.26406 10.3181 8.48896L11.1969 9.38859C11.5151 9.70346 11.3787 10.2432 10.9697 10.3632C10.6818 10.4531 10.4848 10.768 10.5757 11.0529C10.7272 11.7126 11.5757 12.5523 12.2121 12.7172C12.5 12.7772 12.8181 12.6272 12.9242 12.3424C13.0606 11.9375 13.606 11.8176 13.909 12.1324L14.7878 13.0321C15.0303 13.242 15.0303 13.6168 14.803 13.8717ZM12.5454 8.84881C12.4848 8.84881 12.4242 8.84881 12.3636 8.86381C12.2575 8.8788 12.1515 8.78884 12.1363 8.68388C12.1212 8.57893 12.2121 8.47397 12.3181 8.45898C12.3939 8.44398 12.4697 8.44398 12.5454 8.44398C13.6515 8.44398 14.5606 9.34361 14.5606 10.4382C14.5606 10.5131 14.5606 10.5881 14.5454 10.6631C14.5303 10.768 14.4242 10.858 14.3181 10.843C14.2121 10.828 14.1212 10.723 14.1363 10.6181C14.1363 10.5581 14.1515 10.4981 14.1515 10.4382C14.1666 9.56851 13.4393 8.84881 12.5454 8.84881ZM13.7575 10.4531C13.7575 10.5581 13.6666 10.6481 13.5606 10.6481C13.4545 10.6481 13.3636 10.5581 13.3636 10.4531C13.3636 10.0183 13 9.65848 12.5606 9.65848C12.4545 9.65848 12.3636 9.56851 12.3636 9.46356C12.3636 9.3586 12.4545 9.26864 12.5606 9.26864C13.2121 9.25364 13.7575 9.79342 13.7575 10.4531ZM15.303 11.0979C15.2727 11.2028 15.1666 11.2778 15.0454 11.2478C14.9393 11.2178 14.8787 11.1129 14.909 11.0079C14.9545 10.828 14.9697 10.6481 14.9697 10.4531C14.9697 9.13369 13.8787 8.05414 12.5454 8.05414H12.3636C12.2575 8.05414 12.1515 7.97918 12.1515 7.87422C12.1515 7.76926 12.2272 7.66431 12.3333 7.66431C12.409 7.66431 12.4848 7.64931 12.5454 7.64931C14.106 7.64931 15.3787 8.90879 15.3787 10.4531C15.3787 10.6631 15.3484 10.888 15.303 11.0979Z" fill="#838383"/>
</svg>
