<svg width="24" height="24" viewBox="0 0 24 24" fill="none" xmlns="http://www.w3.org/2000/svg">
<path d="M12.0014 6.59961H11.9987C9.02132 6.59961 6.6001 9.02151 6.6001 11.9996C6.6001 13.1809 6.9808 14.2757 7.62812 15.1647L6.95515 17.1708L9.03077 16.5073C9.88465 17.0729 10.9032 17.3996 12.0014 17.3996C14.9789 17.3996 17.4001 14.977 17.4001 11.9996C17.4001 9.02218 14.9789 6.59961 12.0014 6.59961ZM15.1436 14.2251C15.0133 14.593 14.4962 14.8981 14.0838 14.9872C13.8017 15.0472 13.4331 15.0952 12.1925 14.5808C10.6055 13.9234 9.5836 12.3108 9.50395 12.2062C9.42767 12.1015 8.8627 11.3523 8.8627 10.5774C8.8627 9.80248 9.25622 9.42516 9.41485 9.26316C9.54512 9.13018 9.76045 9.06943 9.967 9.06943C10.0338 9.06943 10.0939 9.07281 10.1479 9.07551C10.3065 9.08226 10.3862 9.09171 10.4908 9.34213C10.6211 9.65601 10.9383 10.4309 10.9761 10.5106C11.0146 10.5902 11.0531 10.6982 10.9991 10.8028C10.9484 10.9108 10.9039 10.9588 10.8242 11.0506C10.7446 11.1424 10.669 11.2126 10.5893 11.3111C10.5164 11.3968 10.4341 11.4886 10.5259 11.6473C10.6177 11.8025 10.9349 12.3202 11.402 12.736C12.0048 13.2727 12.4935 13.4441 12.6683 13.517C12.7986 13.571 12.9539 13.5582 13.049 13.4569C13.1699 13.3267 13.319 13.1107 13.4709 12.898C13.5789 12.7455 13.7153 12.7266 13.8584 12.7806C14.0042 12.8312 14.7757 13.2126 14.9343 13.2916C15.0929 13.3712 15.1976 13.409 15.236 13.4758C15.2738 13.5427 15.2738 13.8565 15.1436 14.2251Z" fill="#838383"/>
</svg>
